<?xml version="1.0" encoding="UTF-8"?>
<svg version="1.1" xmlns="http://www.w3.org/2000/svg" width="400" height="400">
<path d="M0 0 C132 0 264 0 400 0 C400 132 400 264 400 400 C268 400 136 400 0 400 C0 268 0 136 0 0 Z " fill="#0B0B12" transform="translate(0,0)"/>
<path d="M0 0 C14.73594563 10.85053115 25.86450226 27.04257863 29.73583984 45.08447266 C32.41696202 67.36388616 29.47765796 89.28122509 15.7890625 107.61132812 C11.86809111 112.57093287 7.71789283 117.34756151 3.17724609 121.75244141 C2.51724609 121.42244141 1.85724609 121.09244141 1.17724609 120.75244141 C1.46599609 119.81787109 1.75474609 118.88330078 2.05224609 117.92041016 C8.21053808 96.70608047 5.82511669 76.72991325 -4.68603516 57.38525391 C-14.69333646 39.8940343 -30.71798359 28.79235959 -49.87036133 23.49609375 C-68.84427482 18.74111139 -88.65669241 22.16625745 -105.44775391 32.00244141 C-106.05216309 32.36805176 -106.65657227 32.73366211 -107.27929688 33.11035156 C-111.64780193 35.75244141 -111.64780193 35.75244141 -113.82275391 35.75244141 C-113.82275391 36.41244141 -113.82275391 37.07244141 -113.82275391 37.75244141 C-114.48275391 37.75244141 -115.14275391 37.75244141 -115.82275391 37.75244141 C-110.97282864 19.56522166 -96.55399827 5.58818759 -80.94775391 -4.06005859 C-74.8441652 -7.47996822 -68.59128389 -9.55742862 -61.82275391 -11.24755859 C-60.80375 -11.51246094 -60.80375 -11.51246094 -59.76416016 -11.78271484 C-39.01723586 -16.86063338 -17.4928561 -11.97274239 0 0 Z " fill="#6938FB" transform="translate(245.82275390625,113.24755859375)"/>
<path d="M0 0 C0.66 0 1.32 0 2 0 C3.55380258 2.17959733 4.94837458 4.3293382 6.3125 6.625 C6.71404297 7.29781006 7.11558594 7.97062012 7.52929688 8.66381836 C14.49441621 20.70509191 17.17860816 32.43208659 17.1875 46.25 C17.19974609 47.23613281 17.21199219 48.22226563 17.22460938 49.23828125 C17.26379111 69.06423693 9.66780141 87.50032814 -4.125 101.6875 C-16.59616658 113.98967571 -33.84300723 123.10032533 -51.64501953 123.33007812 C-76.14666626 123.1471921 -94.84872983 116.43040045 -112.26611328 98.80249023 C-121.91705935 88.68573932 -129.2893902 75.77893317 -132 62 C-131.546875 59.76171875 -131.546875 59.76171875 -131 58 C-130.46632812 58.56847656 -129.93265625 59.13695312 -129.3828125 59.72265625 C-119.10917603 70.36955633 -107.3228117 78.02833644 -93 82 C-92.26652344 82.20625 -91.53304687 82.4125 -90.77734375 82.625 C-72.3834667 87.04690033 -53.198998 83.27825788 -36.84765625 74.26171875 C-19.28444079 63.39613553 -8.8016744 47.66122992 -3 28 C-2.65533691 27.21020752 -2.31067383 26.42041504 -1.95556641 25.60668945 C-0.91474599 22.76743561 -0.68700935 20.49577888 -0.5859375 17.48046875 C-0.52792969 15.9480957 -0.52792969 15.9480957 -0.46875 14.38476562 C-0.4378125 13.32966797 -0.406875 12.27457031 -0.375 11.1875 C-0.31699219 9.57584961 -0.31699219 9.57584961 -0.2578125 7.93164062 C-0.16381387 5.28792912 -0.07815427 2.6442195 0 0 Z " fill="#6D3FFB" transform="translate(286,177)"/>
<path d="M0 0 C0 0.66 0 1.32 0 2 C-1.06476563 2.32871094 -2.12953125 2.65742188 -3.2265625 2.99609375 C-22.20244339 9.10734337 -39.88284979 20.24970578 -50 38 C-57.04112222 51.82085707 -60.59041804 64.4593537 -60 80 C-60.00515625 80.77472656 -60.0103125 81.54945313 -60.015625 82.34765625 C-59.40861021 100.04213733 -47.5148662 119.14478075 -35 131 C-27.94698542 136.71324162 -20.13489349 141.0446659 -12 145 C-12 145.33 -12 145.66 -12 146 C-36.13908675 146.71311925 -57.2627769 144.88336357 -76 128 C-76.89460938 127.19820312 -77.78921875 126.39640625 -78.7109375 125.5703125 C-92.20644439 112.81428544 -101.41665183 95.39608799 -102.23828125 76.6015625 C-102.70013345 56.01082439 -98.02538736 37.74028188 -84 22 C-83.43023437 21.33742187 -82.86046875 20.67484375 -82.2734375 19.9921875 C-61.17320791 -2.90380631 -28.98200429 -7.37723746 0 0 Z " fill="#5A15FA" transform="translate(199,152)"/>
<path d="M0 0 C0.33 0 0.66 0 1 0 C0.99214478 1.10287354 0.99214478 1.10287354 0.98413086 2.22802734 C0.96314084 5.61034261 0.95027049 8.9926441 0.9375 12.375 C0.92912109 13.53128906 0.92074219 14.68757812 0.91210938 15.87890625 C0.89297068 22.65400559 1.14777999 29.27639726 2 36 C-2.55377743 31.44622257 -2.25691371 24.88108755 -2.2734375 18.80859375 C-2.26570313 17.84050781 -2.25796875 16.87242187 -2.25 15.875 C-2.25773437 14.89917969 -2.26546875 13.92335937 -2.2734375 12.91796875 C-2.27085938 11.97308594 -2.26828125 11.02820313 -2.265625 10.0546875 C-2.26336914 9.20374512 -2.26111328 8.35280273 -2.25878906 7.47607422 C-1.96850869 4.69869349 -1.1419621 2.53624453 0 0 Z " fill="#0B0349" transform="translate(97,207)"/>
<path d="M0 0 C1.98 1.65 3.96 3.3 6 5 C5.01 5.495 5.01 5.495 4 6 C4.77774134 11.05531868 5.85948394 16.01716284 7 21 C2.57802412 16.57802412 1.26796211 9.94966837 0 4 C0 2.68 0 1.36 0 0 Z " fill="#541ECE" transform="translate(154,235)"/>
<path d="M0 0 C0.66 0.33 1.32 0.66 2 1 C0.78258021 2.46815389 -0.44948761 3.92416847 -1.6875 5.375 C-2.37199219 6.18710938 -3.05648437 6.99921875 -3.76171875 7.8359375 C-6.09861313 10.09534323 -7.9302743 11.02155853 -11 12 C-7.49102731 7.81576108 -3.91939465 3.80411834 0 0 Z " fill="#5812E1" transform="translate(123,166)"/>
<path d="M0 0 C1.4800841 0.11362262 2.95910074 0.24122908 4.4375 0.375 C5.26121094 0.44460938 6.08492187 0.51421875 6.93359375 0.5859375 C7.95646484 0.79089844 7.95646484 0.79089844 9 1 C9.33 1.66 9.66 2.32 10 3 C4.06 3 -1.88 3 -8 3 C-8 2.67 -8 2.34 -8 2 C-5.36 2 -2.72 2 0 2 C0 1.34 0 0.68 0 0 Z " fill="#6625EB" transform="translate(177,295)"/>
<path d="M0 0 C0.66 0.99 1.32 1.98 2 3 C1.34 3.7425 0.68 4.485 0 5.25 C-2.39211447 7.97242945 -2.39211447 7.97242945 -2 12 C-2.66 12 -3.32 12 -4 12 C-4 12.66 -4 13.32 -4 14 C-4.66 14 -5.32 14 -6 14 C-4.45941767 8.98491285 -2.97068161 4.3852919 0 0 Z " fill="#5214D0" transform="translate(136,137)"/>
<path d="M0 0 C0 0.66 0 1.32 0 2 C-1.76505435 2.86604534 -3.53728074 3.71748642 -5.3125 4.5625 C-6.79169922 5.27599609 -6.79169922 5.27599609 -8.30078125 6.00390625 C-11 7 -11 7 -14 6 C-12.04414675 4.99515796 -10.08523763 3.99626195 -8.125 3 C-6.48917969 2.1646875 -6.48917969 2.1646875 -4.8203125 1.3125 C-2 0 -2 0 0 0 Z " fill="#5E20DE" transform="translate(176,105)"/>
<path d="M0 0 C0 0.66 0 1.32 0 2 C-1.96875 3.5078125 -1.96875 3.5078125 -4.5 5.125 C-5.3353125 5.66382813 -6.170625 6.20265625 -7.03125 6.7578125 C-7.6809375 7.16773438 -8.330625 7.57765625 -9 8 C-9.33 7.01 -9.66 6.02 -10 5 C-8.71186658 4.16121545 -7.41936744 3.32913217 -6.125 2.5 C-5.40570313 2.0359375 -4.68640625 1.571875 -3.9453125 1.09375 C-2 0 -2 0 0 0 Z " fill="#5721E9" transform="translate(174,163)"/>
<path d="M0 0 C1 4 1 4 1 6 C0.01 6.66 -0.98 7.32 -2 8 C-2.99 7.67 -3.98 7.34 -5 7 C-3.35 4.69 -1.7 2.38 0 0 Z " fill="#601AEA" transform="translate(142,129)"/>
<path d="M0 0 C0.99 0.66 1.98 1.32 3 2 C2.34 3.32 1.68 4.64 1 6 C0.01 6 -0.98 6 -2 6 C-1.34 4.02 -0.68 2.04 0 0 Z " fill="#5B39C3" transform="translate(249,228)"/>
<path d="M0 0 C2.64 0.33 5.28 0.66 8 1 C8 1.66 8 2.32 8 3 C6.35 3.33 4.7 3.66 3 4 C2.01 2.68 1.02 1.36 0 0 Z " fill="#6A30E7" transform="translate(191,151)"/>
</svg>
